<svg width="467" height="120" viewBox="0 0 467 120" fill="none" xmlns="http://www.w3.org/2000/svg">
<path d="M115.12 57.64V64.52C114.96 99.24 90.64 119.08 59.28 119.08C25.84 119.08 0.720001 93.8 0.720001 60.68C0.720001 28.04 25.68 2.91999 58.64 2.91999C84.4 2.91999 103.76 17 111.12 36.04L99.12 39.24C92.88 25 78.96 14.92 58.8 14.92C31.44 14.92 13.52 35.88 13.52 60.52C13.52 85.8 31.28 107.24 59.76 107.24C83.92 107.24 100.88 92.2 102.48 68.68H58.48V57.64H115.12ZM135.732 22.28C130.932 22.28 127.252 18.6 127.252 13.8C127.252 9.31999 130.932 5.63999 135.732 5.63999C140.532 5.63999 144.212 9.31999 144.212 13.8C144.212 18.6 140.532 22.28 135.732 22.28ZM129.652 117V37.16H141.972V117H129.652ZM161.869 117V0.199997H174.189V117H161.869ZM286.439 35.24C305.479 35.24 317.479 47.56 317.479 69V117H305.159V70.92C305.159 55.88 298.279 46.76 284.359 46.76C270.759 46.76 261.479 57.64 261.479 74.28V117H249.159V70.92C249.159 56.04 242.599 46.76 229.479 46.76C215.399 46.76 205.639 58.44 205.639 76.2V117H193.319V37.16H205.639V50.28C210.759 41.64 219.879 35.24 232.199 35.24C244.359 35.24 253.159 40.84 257.799 50.6C262.759 41.96 272.199 35.24 286.439 35.24ZM372.822 119.08C348.342 119.08 330.742 102.6 330.742 77C330.742 53.48 347.062 35.24 371.382 35.24C396.822 35.24 411.382 53 411.382 75.24C411.382 77.48 411.382 78.92 411.062 81H342.902C344.022 97 355.062 108.2 372.822 108.2C386.582 108.2 395.382 100.84 399.222 92.68L410.582 96.04C405.302 107.4 393.142 119.08 372.822 119.08ZM342.902 71.88L399.222 71.72C398.102 56.84 388.182 46.12 371.382 46.12C355.222 46.12 344.022 57.96 342.902 71.88ZM437.758 50.92C442.558 40.52 452.318 34.28 466.398 36.2V47.72C449.118 45.48 437.758 54.6 437.758 79.72V117H425.438V37.16H437.758V50.92Z" fill="#171717"/>
</svg>
