<?xml version="1.0" encoding="UTF-8"?>
<svg id="Layer_2" data-name="Layer 2" xmlns="http://www.w3.org/2000/svg" viewBox="0 0 1439.37 367.03">
  <defs>
    <style>
      .cls-1 {
        fill: #191919;
      }
    </style>
  </defs>
  <g id="Layer_1-2" data-name="Layer 1">
    <g>
      <path class="cls-1" d="M1140.66,1.4c-.49-.49-.95-.95-1.4-1.4h.03c.46.46.92.92,1.38,1.4Z"/>
      <path class="cls-1" d="M1140.66,1.4c-.49-.49-.95-.95-1.4-1.4h.03c.46.46.92.92,1.38,1.4Z"/>
      <path class="cls-1" d="M1376.1,120.76L1255.04,0h-115.76c.46.46,120.58,123.28,140.01,142.7H0s0,81.67,0,81.67h1280.61c-47.66,47.52-92.42,94.7-139.94,142.11l.51.54h114.74s56.5-56.34,123.18-122.86c22.91-22.88,44.28-44.17,60.27-60.14v-.14s-63.27-63.14-63.27-63.14Z"/>
    </g>
  </g>
</svg>