<svg width="902" height="119" viewBox="0 0 902 119" fill="none" xmlns="http://www.w3.org/2000/svg">
<path d="M43.04 -3.8147e-06H61.92L105.6 116H88L78.88 90.88H25.6L16.64 116H0L43.04 -3.8147e-06ZM30.56 76.96H73.76L52 16.48L30.56 76.96ZM150.905 -3.8147e-06C157.945 -3.8147e-06 164.398 0.479996 170.265 1.44C176.238 2.4 181.358 4.21333 185.625 6.87999C189.892 9.43999 193.198 13.0133 195.545 17.6C197.892 22.08 199.065 27.8933 199.065 35.04C199.065 42.2933 197.892 48.2133 195.545 52.8C193.198 57.28 189.892 60.8 185.625 63.36C181.358 65.92 176.238 67.68 170.265 68.64C164.398 69.6 157.945 70.08 150.905 70.08H130.905V116H114.585V-3.8147e-06H150.905ZM130.905 13.76V55.84H152.185C156.452 55.84 160.398 55.68 164.025 55.36C167.758 54.9333 170.958 54.0267 173.625 52.64C176.398 51.1467 178.532 49.0667 180.025 46.4C181.625 43.6267 182.425 39.84 182.425 35.04C182.425 30.3467 181.625 26.6133 180.025 23.84C178.532 20.96 176.398 18.7733 173.625 17.28C170.958 15.7867 167.758 14.8267 164.025 14.4C160.398 13.9733 156.452 13.76 152.185 13.76H130.905ZM227.824 58.4L280.144 -3.8147e-06H300.464L257.104 47.36L305.424 116H285.904L246.064 59.36L227.824 79.52V116H211.504V-3.8147e-06H227.824V58.4ZM382.755 -3.8147e-06C389.795 -3.8147e-06 396.248 0.479996 402.115 1.44C408.088 2.4 413.208 4.21333 417.475 6.87999C421.742 9.43999 425.048 13.0133 427.395 17.6C429.742 22.08 430.915 27.8933 430.915 35.04C430.915 42.2933 429.742 48.2133 427.395 52.8C425.048 57.28 421.742 60.8 417.475 63.36C413.208 65.92 408.088 67.68 402.115 68.64C396.248 69.6 389.795 70.08 382.755 70.08H362.755V116H346.435V-3.8147e-06H382.755ZM362.755 13.76V55.84H384.035C388.302 55.84 392.248 55.68 395.875 55.36C399.608 54.9333 402.808 54.0267 405.475 52.64C408.248 51.1467 410.382 49.0667 411.875 46.4C413.475 43.6267 414.275 39.84 414.275 35.04C414.275 30.3467 413.475 26.6133 411.875 23.84C410.382 20.96 408.248 18.7733 405.475 17.28C402.808 15.7867 399.608 14.8267 395.875 14.4C392.248 13.9733 388.302 13.76 384.035 13.76H362.755ZM482.431 45.12C480.938 44.9067 479.498 44.7467 478.111 44.64C476.725 44.5333 475.445 44.48 474.271 44.48C467.551 44.48 462.485 46.5067 459.071 50.56C455.765 54.6133 454.111 61.3867 454.111 70.88V116H439.551V29.92H453.791V44.96C455.925 40.0533 459.071 36.32 463.231 33.76C467.498 31.0933 472.458 29.6533 478.111 29.44C478.858 29.44 479.551 29.44 480.191 29.44C480.831 29.44 481.578 29.4933 482.431 29.6V45.12ZM499.984 73.28C499.984 79.04 500.624 83.9467 501.904 88C503.29 92.0533 505.104 95.36 507.344 97.92C509.69 100.48 512.41 102.347 515.504 103.52C518.597 104.693 521.85 105.28 525.264 105.28C528.677 105.28 531.93 104.64 535.024 103.36C538.117 102.08 540.784 100.16 543.024 97.6C545.37 94.9333 547.184 91.6267 548.464 87.68C549.85 83.6267 550.544 78.8267 550.544 73.28C550.544 67.52 549.85 62.6133 548.464 58.56C547.184 54.5067 545.37 51.2 543.024 48.64C540.784 46.08 538.117 44.2133 535.024 43.04C531.93 41.8667 528.677 41.28 525.264 41.28C521.85 41.28 518.597 41.8667 515.504 43.04C512.41 44.1067 509.69 45.92 507.344 48.48C505.104 51.04 503.29 54.3467 501.904 58.4C500.624 62.4533 499.984 67.4133 499.984 73.28ZM484.464 73.28C484.464 65.4933 485.584 58.7733 487.824 53.12C490.17 47.4667 493.264 42.8267 497.104 39.2C500.944 35.5733 505.317 32.9067 510.224 31.2C515.13 29.3867 520.144 28.48 525.264 28.48C530.384 28.48 535.397 29.3867 540.304 31.2C545.21 32.9067 549.584 35.5733 553.424 39.2C557.264 42.8267 560.304 47.4667 562.544 53.12C564.89 58.7733 566.064 65.4933 566.064 73.28C566.064 81.0667 564.89 87.7867 562.544 93.44C560.304 99.0933 557.264 103.733 553.424 107.36C549.584 110.987 545.21 113.707 540.304 115.52C535.397 117.227 530.384 118.08 525.264 118.08C520.144 118.08 515.13 117.227 510.224 115.52C505.317 113.707 500.944 110.987 497.104 107.36C493.264 103.733 490.17 99.0933 487.824 93.44C485.584 87.7867 484.464 81.0667 484.464 73.28ZM582.08 8.31999H596.64V29.92H612.96V41.6H596.64V92.64C596.64 94.88 596.693 96.7467 596.8 98.24C597.013 99.6267 597.387 100.747 597.92 101.6C598.56 102.453 599.467 103.04 600.64 103.36C601.813 103.68 603.467 103.84 605.6 103.84H612.96V116H602.4C598.24 116 594.827 115.733 592.16 115.2C589.6 114.56 587.573 113.493 586.08 112C584.587 110.4 583.52 108.213 582.88 105.44C582.347 102.56 582.08 98.88 582.08 94.4V41.6H568.48V29.92H582.08V8.31999ZM634.29 73.28C634.29 79.04 634.93 83.9467 636.21 88C637.597 92.0533 639.41 95.36 641.65 97.92C643.997 100.48 646.717 102.347 649.81 103.52C652.903 104.693 656.157 105.28 659.57 105.28C662.983 105.28 666.237 104.64 669.33 103.36C672.423 102.08 675.09 100.16 677.33 97.6C679.677 94.9333 681.49 91.6267 682.77 87.68C684.157 83.6267 684.85 78.8267 684.85 73.28C684.85 67.52 684.157 62.6133 682.77 58.56C681.49 54.5067 679.677 51.2 677.33 48.64C675.09 46.08 672.423 44.2133 669.33 43.04C666.237 41.8667 662.983 41.28 659.57 41.28C656.157 41.28 652.903 41.8667 649.81 43.04C646.717 44.1067 643.997 45.92 641.65 48.48C639.41 51.04 637.597 54.3467 636.21 58.4C634.93 62.4533 634.29 67.4133 634.29 73.28ZM618.77 73.28C618.77 65.4933 619.89 58.7733 622.13 53.12C624.477 47.4667 627.57 42.8267 631.41 39.2C635.25 35.5733 639.623 32.9067 644.53 31.2C649.437 29.3867 654.45 28.48 659.57 28.48C664.69 28.48 669.703 29.3867 674.61 31.2C679.517 32.9067 683.89 35.5733 687.73 39.2C691.57 42.8267 694.61 47.4667 696.85 53.12C699.197 58.7733 700.37 65.4933 700.37 73.28C700.37 81.0667 699.197 87.7867 696.85 93.44C694.61 99.0933 691.57 103.733 687.73 107.36C683.89 110.987 679.517 113.707 674.61 115.52C669.703 117.227 664.69 118.08 659.57 118.08C654.45 118.08 649.437 117.227 644.53 115.52C639.623 113.707 635.25 110.987 631.41 107.36C627.57 103.733 624.477 99.0933 622.13 93.44C619.89 87.7867 618.77 81.0667 618.77 73.28ZM749.457 28.48C754.791 28.48 759.537 29.3867 763.697 31.2C767.857 32.9067 771.431 35.2 774.417 38.08C777.404 40.96 779.751 44.2133 781.457 47.84C783.271 51.4667 784.444 55.0933 784.977 58.72H770.257C769.191 53.6 766.737 49.44 762.897 46.24C759.164 42.9333 754.364 41.28 748.497 41.28C745.084 41.28 741.884 41.92 738.897 43.2C736.017 44.48 733.457 46.4533 731.217 49.12C729.084 51.68 727.377 54.9333 726.097 58.88C724.817 62.8267 724.177 67.52 724.177 72.96C724.177 78.4 724.817 83.1467 726.097 87.2C727.377 91.2533 729.137 94.6133 731.377 97.28C733.617 99.9467 736.177 101.973 739.057 103.36C742.044 104.64 745.191 105.28 748.497 105.28C751.697 105.28 754.524 104.8 756.977 103.84C759.537 102.88 761.724 101.6 763.537 100C765.457 98.4 767.004 96.5867 768.177 94.56C769.457 92.4267 770.364 90.24 770.897 88H785.937C785.191 92.0533 783.751 95.8933 781.617 99.52C779.484 103.147 776.764 106.347 773.457 109.12C770.257 111.893 766.471 114.08 762.097 115.68C757.831 117.28 753.137 118.08 748.017 118.08C741.724 118.08 736.124 116.96 731.217 114.72C726.311 112.48 722.151 109.387 718.737 105.44C715.324 101.493 712.711 96.8 710.897 91.36C709.191 85.8133 708.337 79.7333 708.337 73.12C708.337 66.72 709.244 60.8 711.057 55.36C712.977 49.92 715.697 45.2267 719.217 41.28C722.737 37.2267 727.004 34.08 732.017 31.84C737.137 29.6 742.951 28.48 749.457 28.48ZM808.284 73.28C808.284 79.04 808.924 83.9467 810.204 88C811.59 92.0533 813.404 95.36 815.644 97.92C817.99 100.48 820.71 102.347 823.804 103.52C826.897 104.693 830.15 105.28 833.564 105.28C836.977 105.28 840.23 104.64 843.324 103.36C846.417 102.08 849.084 100.16 851.324 97.6C853.67 94.9333 855.484 91.6267 856.764 87.68C858.15 83.6267 858.844 78.8267 858.844 73.28C858.844 67.52 858.15 62.6133 856.764 58.56C855.484 54.5067 853.67 51.2 851.324 48.64C849.084 46.08 846.417 44.2133 843.324 43.04C840.23 41.8667 836.977 41.28 833.564 41.28C830.15 41.28 826.897 41.8667 823.804 43.04C820.71 44.1067 817.99 45.92 815.644 48.48C813.404 51.04 811.59 54.3467 810.204 58.4C808.924 62.4533 808.284 67.4133 808.284 73.28ZM792.764 73.28C792.764 65.4933 793.884 58.7733 796.124 53.12C798.47 47.4667 801.564 42.8267 805.404 39.2C809.244 35.5733 813.617 32.9067 818.524 31.2C823.43 29.3867 828.444 28.48 833.564 28.48C838.684 28.48 843.697 29.3867 848.604 31.2C853.51 32.9067 857.884 35.5733 861.724 39.2C865.564 42.8267 868.604 47.4667 870.844 53.12C873.19 58.7733 874.364 65.4933 874.364 73.28C874.364 81.0667 873.19 87.7867 870.844 93.44C868.604 99.0933 865.564 103.733 861.724 107.36C857.884 110.987 853.51 113.707 848.604 115.52C843.697 117.227 838.684 118.08 833.564 118.08C828.444 118.08 823.43 117.227 818.524 115.52C813.617 113.707 809.244 110.987 805.404 107.36C801.564 103.733 798.47 99.0933 796.124 93.44C793.884 87.7867 792.764 81.0667 792.764 73.28ZM901.561 116H887.001V-3.8147e-06H901.561V116Z" fill="#171717"/>
</svg>
