<?xml version="1.0" encoding="UTF-8"?>
<svg id="Layer_2" data-name="Layer 2" xmlns="http://www.w3.org/2000/svg" viewBox="0 0 904.88 451.04">
  <defs>
    <style>
      .cls-1 {
        fill: #c7fa9e;
      }
    </style>
  </defs>
  <g id="Layer_1-2" data-name="Layer 1">
    <g>
      <path class="cls-1" d="M424.73,137.69l29.15,29.15c21.21-21.21,62.76-62.76,84.01-84.01h284.16l-42.32,42.31h-224.32c-20.84,20.84-81.66,81.66-101.53,101.54L269.52,42.31H42.31L0,0h287.04l107.78,107.78c34.26-34.28,73.49-73.47,107.77-107.78h402.29l-42.31,42.31h-342.46c-24.57,24.57-95.38,95.38-95.38,95.38Z"/>
      <path class="cls-1" d="M579.37,325.5c-8.72,8.74-33.24,33.24-42.31,42.31h-106.75c-25.47,25.47-57.84,57.86-83.23,83.23h-59.84c39.34-39.32,86.03-86.03,125.53-125.53h166.59Z"/>
      <path class="cls-1" d="M761.23,260.92c-32.31,32.3-106.89,106.88-106.89,106.88h-59.31l-.26-.26c24.57-24.57,59.61-59.59,84.21-84.21h-281.74l-167.7,167.7H51.55c81.08-81.08,173.83-173.84,254.72-254.71-17.2-17.2-53.77-53.77-71.18-71.18h-109.95l-42.31-42.31h169.79l113.49,113.49c-64.81,64.81-147.23,147.23-212.4,212.4h58.3c47.3-47.3,119.81-119.81,167.69-167.69h301.81c-15.3-15.3-60.26-60.26-75.37-75.37h59.84l95.26,95.26Z"/>
    </g>
  </g>
</svg>