<svg xmlns="http://www.w3.org/2000/svg" xmlns:xlink="http://www.w3.org/1999/xlink" width="1920" zoomAndPan="magnify" viewBox="0 0 1440 412.499988" height="550" preserveAspectRatio="xMidYMid meet" version="1.2"><defs><clipPath id="ea97e01760"><path d="M 1113 165 L 1263.089844 165 L 1263.089844 305 L 1113 305 Z M 1113 165 "/></clipPath><clipPath id="bd38f32845"><path d="M 192 272 L 388 272 L 388 356.425781 L 192 356.425781 Z M 192 272 "/></clipPath><clipPath id="ffba5f22d9"><path d="M 0.871094 55.289062 L 606 55.289062 L 606 207 L 0.871094 207 Z M 0.871094 55.289062 "/></clipPath></defs><g id="889eeb324c"><path style=" stroke:none;fill-rule:nonzero;fill:#191919;fill-opacity:1;" d="M 664.734375 165.167969 L 664.734375 234.6875 C 664.734375 283.09375 637.9375 306.597656 576.078125 306.597656 C 538.96875 306.597656 514.550781 298.257812 500.921875 281.160156 C 510.421875 271.6875 519.875 262.261719 527.183594 254.976562 C 532.488281 267.011719 545.453125 276.515625 576.089844 276.515625 C 623.039062 276.515625 628.476562 254.003906 628.476562 234.6875 L 628.476562 165.167969 L 664.742188 165.167969 Z M 664.734375 165.167969 "/><path style=" stroke:none;fill-rule:nonzero;fill:#191919;fill-opacity:1;" d="M 487.515625 165.167969 L 523.703125 200.480469 L 523.703125 165.167969 Z M 487.515625 165.167969 "/><path style=" stroke:none;fill-rule:nonzero;fill:#191919;fill-opacity:1;" d="M 866.320312 216.359375 C 866.320312 185.285156 844.367188 165.179688 812.324219 165.179688 L 701.503906 165.179688 L 701.503906 304.605469 L 737.761719 304.605469 L 737.761719 267.347656 L 796.199219 267.347656 L 818.972656 304.605469 L 861.679688 304.605469 L 835.683594 263.171875 C 854.636719 255.804688 866.308594 239.066406 866.308594 216.351562 Z M 802.25 237.277344 L 737.773438 237.277344 L 737.773438 195.253906 L 802.25 195.253906 C 813.125 195.253906 830.050781 195.253906 830.050781 216.359375 C 830.050781 237.46875 813.125 237.285156 802.25 237.285156 Z M 802.25 237.277344 "/><path style=" stroke:none;fill-rule:nonzero;fill:#191919;fill-opacity:1;" d="M 987.71875 253.21875 L 1040.308594 253.21875 C 1039.5 263.777344 1025.402344 278.910156 990.339844 278.910156 C 943.390625 278.910156 936.746094 252.613281 936.746094 235.691406 C 936.746094 218.765625 943.199219 193.257812 990.339844 193.257812 C 1028.625 193.257812 1038.292969 208.992188 1040.308594 219.554688 L 1077.183594 219.554688 C 1074.96875 184.898438 1046.761719 163.183594 990.339844 163.183594 C 933.921875 163.183594 900.476562 188.683594 900.476562 234.890625 C 900.476562 281.101562 932.3125 306.597656 984.300781 306.597656 C 1014.320312 306.597656 1035.476562 297.042969 1048.777344 282.695312 L 1050.386719 304.605469 L 1077.183594 304.605469 L 1077.183594 229.910156 L 987.71875 229.910156 Z M 987.71875 253.21875 "/><g clip-rule="nonzero" clip-path="url(#ea97e01760)"><path style=" stroke:none;fill-rule:nonzero;fill:#191919;fill-opacity:1;" d="M 1263.089844 193.65625 L 1263.089844 165.167969 L 1113.992188 165.167969 L 1113.992188 304.613281 L 1263.089844 304.613281 L 1263.089844 276.128906 L 1150.261719 276.128906 L 1150.261719 247.835938 L 1263.089844 247.835938 L 1263.089844 221.9375 L 1150.261719 221.9375 L 1150.261719 193.65625 Z M 1263.089844 193.65625 "/></g><path style=" stroke:none;fill-rule:nonzero;fill:#191919;fill-opacity:1;" d="M 406.183594 166.4375 C 406.019531 166.273438 405.855469 166.109375 405.703125 165.957031 C 405.855469 166.109375 406.019531 166.273438 406.175781 166.4375 Z M 406.183594 166.4375 "/><path style=" stroke:none;fill-rule:nonzero;fill:#191919;fill-opacity:1;" d="M 406.183594 166.4375 C 406.019531 166.273438 405.855469 166.109375 405.703125 165.957031 C 405.855469 166.109375 406.019531 166.273438 406.175781 166.4375 Z M 406.183594 166.4375 "/><g clip-rule="nonzero" clip-path="url(#bd38f32845)"><path style=" stroke:none;fill-rule:nonzero;fill:#191919;fill-opacity:1;" d="M 276.5625 272.453125 C 250.152344 298.730469 218.996094 329.855469 192.730469 356.039062 L 232.683594 356.039062 C 249.609375 339.148438 271.246094 317.589844 288.265625 300.613281 L 359.574219 300.613281 C 365.605469 294.597656 382.007812 278.285156 387.8125 272.453125 L 276.550781 272.453125 Z M 276.5625 272.453125 "/></g><path style=" stroke:none;fill-rule:nonzero;fill:#191919;fill-opacity:1;" d="M 487.433594 207.601562 L 445.65625 165.957031 L 405.703125 165.957031 C 405.855469 166.109375 406.019531 166.273438 406.175781 166.4375 C 406.335938 166.601562 406.523438 166.785156 406.695312 166.960938 C 406.871094 167.132812 407.054688 167.316406 407.238281 167.503906 C 407.421875 167.675781 407.617188 167.871094 407.8125 168.074219 C 407.996094 168.269531 408.203125 168.464844 408.40625 168.667969 C 408.601562 168.875 408.816406 169.078125 409.019531 169.28125 L 409.675781 169.9375 C 409.890625 170.152344 410.117188 170.367188 410.339844 170.601562 L 411.746094 172.003906 C 412.226562 172.476562 412.726562 172.964844 413.230469 173.476562 L 413.996094 174.246094 C 415.296875 175.535156 416.660156 176.894531 418.082031 178.316406 C 418.371094 178.59375 418.65625 178.890625 418.941406 179.175781 C 419.515625 179.738281 420.101562 180.324219 420.695312 180.917969 C 420.992188 181.214844 421.289062 181.511719 421.585938 181.808594 C 434.128906 194.3125 449.355469 209.484375 456.0625 216.1875 L 254.476562 216.1875 C 222.496094 248.082031 174.074219 296.355469 142.496094 327.839844 L 103.574219 327.839844 C 147.082031 284.457031 202.140625 229.5625 245.421875 186.402344 L 169.609375 110.804688 L 56.238281 110.804688 L 84.476562 138.964844 L 157.90625 138.964844 C 169.527344 150.558594 193.9375 174.898438 205.425781 186.351562 C 151.371094 240.253906 89.433594 302.015625 35.285156 356 L 154.210938 356 L 266.199219 244.347656 L 454.359375 244.347656 C 437.917969 260.738281 414.5 284.089844 398.09375 300.4375 L 398.269531 300.625 L 437.867188 300.625 C 437.867188 300.625 465.460938 273.097656 488.46875 250.167969 C 496.375 242.277344 503.746094 234.933594 509.265625 229.425781 L 509.265625 229.375 Z M 487.433594 207.601562 "/><g clip-rule="nonzero" clip-path="url(#ffba5f22d9)"><path style=" stroke:none;fill-rule:nonzero;fill:#191919;fill-opacity:1;" d="M 348.269531 83.832031 L 577.019531 83.832031 L 605.261719 55.675781 L 336.554688 55.675781 C 313.667969 78.542969 287.445312 104.644531 264.570312 127.453125 L 192.585938 55.675781 L 0.871094 55.675781 L 29.113281 83.832031 L 180.871094 83.832031 L 304.035156 206.546875 C 317.285156 193.347656 357.914062 152.828125 371.832031 138.945312 L 521.65625 138.945312 L 549.90625 110.785156 L 360.125 110.785156 C 345.933594 124.9375 318.183594 152.605469 303.992188 166.746094 L 284.539062 147.34375 L 284.589844 147.34375 C 284.589844 147.34375 331.886719 100.175781 348.289062 83.824219 Z M 348.269531 83.832031 "/></g><g style="fill:#191919;fill-opacity:1;"><g transform="translate(1299.497387, 195.944542)"><path style="stroke:none" d="M 14.6875 0 L 14.6875 -22.328125 L 0.75 -22.328125 L 0.75 -31.140625 L 39.015625 -31.140625 L 39.015625 -22.328125 L 25.140625 -22.328125 L 25.140625 0 Z M 14.6875 0 "/></g></g><g style="fill:#191919;fill-opacity:1;"><g transform="translate(1352.430529, 195.944542)"><path style="stroke:none" d="M 1.203125 0 L 1.203125 -31.140625 L 14.375 -31.140625 L 25.046875 -12.0625 L 35.765625 -31.140625 L 48.890625 -31.140625 L 48.890625 0 L 38.484375 0 L 38.484375 -16.8125 L 28.5625 0 L 21.578125 0 L 11.65625 -16.8125 L 11.65625 0 Z M 1.203125 0 "/></g></g></g></svg>