<?xml version="1.0" encoding="UTF-8"?>
<svg id="Layer_2" data-name="Layer 2" xmlns="http://www.w3.org/2000/svg" viewBox="0 0 1232.69 293.55">
  <defs>
    <style>
      .cls-1 {
        fill: #c7fa9e;
      }
    </style>
  </defs>
  <g id="Layer_1-2" data-name="Layer 1">
    <g>
      <g>
        <path class="cls-1" d="M648.33,107.01v67.94c0,47.31-26.17,70.28-86.58,70.28-36.24,0-60.09-8.15-73.4-24.86,9.28-9.26,18.51-18.47,25.65-25.59,5.18,11.76,17.84,21.05,47.76,21.05,45.85,0,51.16-22,51.16-40.88v-67.94h35.42Z"/>
        <polygon class="cls-1" points="475.26 107.01 510.6 141.52 510.6 107.01 475.26 107.01"/>
        <path class="cls-1" d="M845.2,157.04c0-30.37-21.44-50.02-52.73-50.02h-108.23v136.26h35.41v-36.41h57.07l22.24,36.41h41.71l-25.39-40.49c18.51-7.2,29.91-23.56,29.91-45.76ZM782.63,177.48h-62.97v-41.07h62.97c10.62,0,27.15,0,27.15,20.63s-16.53,20.45-27.15,20.45Z"/>
        <path class="cls-1" d="M963.76,193.06h51.36c-.79,10.32-14.56,25.11-48.8,25.11-45.85,0-52.34-25.7-52.34-42.24s6.3-41.47,52.34-41.47c37.39,0,46.83,15.38,48.8,25.7h36.01c-2.16-33.87-29.71-55.09-84.81-55.09s-87.76,24.92-87.76,70.08,31.09,70.08,81.86,70.08c29.32,0,49.98-9.34,62.97-23.36l1.57,21.41h26.17v-73h-87.37v22.78Z"/>
        <polygon class="cls-1" points="1232.69 134.85 1232.69 107.01 1087.08 107.01 1087.08 243.29 1232.69 243.29 1232.69 215.45 1122.5 215.45 1122.5 187.8 1232.69 187.8 1232.69 162.49 1122.5 162.49 1122.5 134.85 1232.69 134.85"/>
      </g>
      <g>
        <path class="cls-1" d="M395.83,108.25c-.16-.16-.32-.32-.47-.47h0c.15.15.31.31.46.47Z"/>
        <path class="cls-1" d="M395.83,108.25c-.16-.16-.32-.32-.47-.47h0c.15.15.31.31.46.47Z"/>
        <path class="cls-1" d="M269.24,211.86c-25.79,25.68-56.22,56.1-81.87,81.69h39.02c16.53-16.51,37.66-37.58,54.28-54.17h69.64c5.89-5.88,21.91-21.82,27.58-27.52h-108.66Z"/>
        <path class="cls-1" d="M475.18,148.48l-40.8-40.7h-39.02c.15.15.31.31.46.47.16.16.34.34.51.51s.35.35.53.53c.18.17.37.36.56.56.18.19.38.38.58.58.19.2.4.4.6.6l.64.64c.21.21.43.42.65.65l1.37,1.37c.47.46.96.94,1.45,1.44l.75.75c1.27,1.26,2.6,2.59,3.99,3.98.28.27.56.56.84.84.56.55,1.13,1.12,1.71,1.7.29.29.58.58.87.87,12.25,12.22,27.12,27.05,33.67,33.6h-196.87c-31.23,31.17-78.52,78.35-109.36,109.12h-38.01c42.49-42.4,96.26-96.05,138.53-138.23l-74.04-73.88H54.07l27.58,27.52h71.71c11.35,11.33,35.19,35.12,46.41,46.31-52.79,52.68-113.28,113.04-166.16,165.8h116.14l109.37-109.12h183.76c-16.06,16.02-38.93,38.84-54.95,54.82l.17.18h38.67s26.95-26.9,49.42-49.31c7.72-7.71,14.92-14.89,20.31-20.27v-.05l-21.32-21.28Z"/>
        <path class="cls-1" d="M339.27,27.52h223.4l27.58-27.52h-262.42c-22.35,22.35-47.96,47.86-70.3,70.15L187.23,0H0l27.58,27.52h148.21l120.28,119.93c12.94-12.9,52.62-52.5,66.21-66.07h146.32l27.59-27.52h-185.34c-13.86,13.83-40.96,40.87-54.82,54.69l-19-18.96h.05s46.19-46.1,62.21-62.08Z"/>
      </g>
    </g>
  </g>
</svg>