<?xml version="1.0" encoding="UTF-8"?>
<svg id="Layer_2" data-name="Layer 2" xmlns="http://www.w3.org/2000/svg" viewBox="0 0 904.88 451.04">
  <defs>
    <style>
      .cls-1 {
        fill: #c7fa9e;
      }
    </style>
  </defs>
  <g id="Layer_1-2" data-name="Layer 1">
    <g>
      <path class="cls-1" d="M480.15,137.69l-29.15,29.15c-21.21-21.21-62.76-62.76-84.01-84.01H82.83l42.32,42.31h224.32c20.84,20.84,81.66,81.66,101.53,101.54l184.37-184.37h227.21L904.88,0h-287.04l-107.78,107.78c-34.26-34.28-73.49-73.47-107.77-107.78H0l42.31,42.31h342.46c24.57,24.57,95.38,95.38,95.38,95.38Z"/>
      <path class="cls-1" d="M325.51,325.5c8.72,8.74,33.24,33.24,42.31,42.31h106.75c25.47,25.47,57.84,57.86,83.23,83.23h59.84c-39.34-39.32-86.03-86.03-125.53-125.53h-166.59Z"/>
      <path class="cls-1" d="M143.65,260.92c32.31,32.3,106.89,106.88,106.89,106.88h59.31l.26-.26c-24.57-24.57-59.61-59.59-84.21-84.21h281.74l167.7,167.7h177.97c-81.08-81.08-173.83-173.84-254.72-254.71,17.2-17.2,53.77-53.77,71.18-71.18h109.95l42.31-42.31h-169.79l-113.49,113.49c64.81,64.81,147.23,147.23,212.4,212.4h-58.3c-47.3-47.3-119.81-119.81-167.69-167.69H223.38c15.3-15.3,60.26-60.26,75.37-75.37h-59.84l-95.26,95.26Z"/>
    </g>
  </g>
</svg>